<svg height="440pt" viewBox="0 0 440 440.666" width="440pt" xmlns="http://www.w3.org/2000/svg"><path d="m220.332031 111h-20c-79.398437 0-144 64.601562-144 144v135.664062h20v-135.664062c0-79.402344 64.601563-144 144-144zm0 0" fill="#d4e1f4"/><g fill="#0635c9"><path d="m434.332031 390.664062h-38v-135.664062c0-86.019531-69.980469-156-156-156h-40c-86.019531 0-156 69.980469-156 156v135.664062h-38c-3.3125 0-6 2.6875-6 6v38c0 3.316407 2.6875 6 6 6h428c3.316407 0 6-2.683593 6-6v-38c0-3.3125-2.683593-6-6-6zm-378-135.664062c0-79.398438 64.601563-144 144-144h40c79.402344 0 144 64.601562 144 144v135.664062h-328zm372 173.664062h-416v-26h416zm0 0"/><path d="m109.332031 343.578125c-3.3125 0-6 2.683594-6 6v16c0 3.3125 2.6875 6 6 6 3.316407 0 6-2.6875 6-6v-16c0-3.316406-2.683593-6-6-6zm0 0"/><path d="m146.332031 343.578125c-3.3125 0-6 2.683594-6 6v16c0 3.3125 2.6875 6 6 6 3.316407 0 6-2.6875 6-6v-16c0-3.316406-2.683593-6-6-6zm0 0"/><path d="m183.332031 343.578125c-3.3125 0-6 2.683594-6 6v16c0 3.3125 2.6875 6 6 6 3.316407 0 6-2.6875 6-6v-16c0-3.316406-2.683593-6-6-6zm0 0"/><path d="m220.332031 343.578125c-3.3125 0-6 2.683594-6 6v16c0 3.3125 2.6875 6 6 6 3.316407 0 6-2.6875 6-6v-16c0-3.316406-2.683593-6-6-6zm0 0"/><path d="m257.332031 343.578125c-3.3125 0-6 2.683594-6 6v16c0 3.3125 2.6875 6 6 6 3.316407 0 6-2.6875 6-6v-16c0-3.316406-2.683593-6-6-6zm0 0"/><path d="m294.332031 343.578125c-3.3125 0-6 2.683594-6 6v16c0 3.3125 2.6875 6 6 6 3.316407 0 6-2.6875 6-6v-16c0-3.316406-2.683593-6-6-6zm0 0"/><path d="m331.332031 343.578125c-3.3125 0-6 2.683594-6 6v16c0 3.3125 2.6875 6 6 6 3.316407 0 6-2.6875 6-6v-16c0-3.316406-2.683593-6-6-6zm0 0"/><path d="m368.332031 343.578125c-3.3125 0-6 2.683594-6 6v16c0 3.3125 2.6875 6 6 6 3.316407 0 6-2.6875 6-6v-16c0-3.316406-2.683593-6-6-6zm0 0"/><path d="m72.332031 343.578125c-3.3125 0-6 2.683594-6 6v16c0 3.3125 2.6875 6 6 6 3.316407 0 6-2.6875 6-6v-16c0-3.316406-2.683593-6-6-6zm0 0"/></g><path d="m220.332031 0c-3.3125 0-6 2.6875-6 6v47c0 3.3125 2.6875 6 6 6 3.316407 0 6-2.6875 6-6v-47c0-3.3125-2.683593-6-6-6zm0 0" fill="#1ae5be"/><path d="m375.957031 67.976562-33.234375 33.234376c-1.558594 1.503906-2.1875 3.738281-1.636718 5.835937.550781 2.097656 2.1875 3.734375 4.285156 4.285156 2.097656.546875 4.328125-.078125 5.835937-1.636719l33.234375-33.234374c1.558594-1.507813 2.183594-3.738282 1.636719-5.835938-.550781-2.097656-2.1875-3.734375-4.285156-4.285156-2.101563-.550782-4.332031.078125-5.835938 1.636718zm0 0" fill="#1ae5be"/><path d="m64.710938 67.976562c-1.507813-1.558593-3.738282-2.1875-5.835938-1.636718-2.097656.550781-3.734375 2.1875-4.285156 4.285156-.550782 2.097656.078125 4.328125 1.636718 5.835938l33.234376 33.234374c1.503906 1.558594 3.738281 2.183594 5.835937 1.636719 2.097656-.550781 3.734375-2.1875 4.285156-4.285156.546875-2.097656-.078125-4.332031-1.636719-5.835937zm0 0" fill="#1ae5be"/></svg>