<svg height="481pt" viewBox="-83 0 481 481" width="481pt" xmlns="http://www.w3.org/2000/svg"><g fill="#d4e1f4"><path d="m164.910156 278v-4.195312l23.808594-23.804688h-20l-23.808594 23.804688v4.195312c.019532 15.457031 12.546875 27.984375 28 28h20c-15.453125-.015625-27.980468-12.542969-28-28zm0 0"/><path d="m164.910156 51.949219h-20v152.332031l17.445313-13.816406c.746093-.582032 1.621093-.980469 2.550781-1.15625zm0 0"/><path d="m196.449219 197.046875-6.121094-6.121094c-2.15625-2.152343-5.582031-2.351562-7.96875-.460937l-6.972656 5.519531 1.0625 1.0625c10.953125 10.984375 12.457031 28.238281 3.574219 40.953125h20c8.882812-12.714844 7.378906-29.96875-3.574219-40.953125zm0 0"/><path d="m192.910156 12h-20c-15.4375.015625-27.953125 12.511719-28 27.949219h20c.046875-15.4375 12.5625-27.933594 28-27.949219zm0 0"/></g><path d="m210.277344 343.378906v-25.378906h64.632812c22.082032-.023438 39.976563-17.917969 40-40v-238c-.023437-22.082031-17.917968-39.9765625-40-40h-102c-22.078125.0234375-39.972656 17.917969-40 40v93.980469l-92.148437 73.382812c-.191407.152344-.371094.316407-.542969.488281-7.484375 7.585938-11.671875 17.820313-11.644531 28.472657v160.8125h-12.574219c-8.832031.007812-15.9882812 7.167969-16 16v51.863281c.0117188 8.832031 7.167969 15.988281 16 16h166.15625c8.832031-.011719 15.988281-7.167969 16-16v-51.863281c-.007812-8.832031-7.167969-15.992188-16-16h-6.511719v-13.570313c19.890625-2.996094 34.605469-20.074218 34.632813-40.1875zm64.632812-37.378906h-102c-15.453125-.015625-27.980468-12.542969-28-28v-4.195312l23.808594-23.804688h134.199219v28c-.019531 15.457031-12.546875 27.984375-28.007813 28zm-98.460937-108.953125-6.121094-6.121094c-2.15625-2.152343-5.582031-2.351562-7.96875-.460937l-17.449219 13.816406v-152.332031h158v186.050781h-122.886718c8.882812-12.714844 7.378906-29.96875-3.574219-40.953125zm-3.539063-185.046875h102c15.4375.015625 27.957032 12.511719 28 27.949219h-158c.046875-15.4375 12.5625-27.933594 28-27.949219zm13.246094 401.136719v51.863281c0 2.210938-1.792969 4-4 4h-166.15625c-2.210938 0-4-1.789062-4-4v-51.863281c0-2.210938 1.789062-4 4-4h166.15625c2.207031 0 4 1.789062 4 4zm-145.582031-16v-160.8125c-.015625-7.386719 2.839843-14.492188 7.964843-19.8125l84.375-67.191407v64.460938l-53.730468 42.542969c-2.582032 2.0625-3.011719 5.824219-.960938 8.414062 2.050782 2.59375 5.8125 3.035157 8.410156.996094l78.988282-62.546875 2.34375 2.347656c7.789062 7.804688 7.789062 20.441406 0 28.246094l-36.734375 36.734375c-1.039063 1.042969-1.660157 2.429687-1.746094 3.898437l-.464844 8.011719c-.003906.117188-.007812.230469-.007812.347657.039062 5.988281 1.402343 11.890624 4 17.285156 6.03125 12.945312 4.898437 28.09375-2.992188 40-.65625.984375-1.007812 2.144531-1.007812 3.328125v17.316406c0 3.3125 2.6875 6 6 6 3.316406 0 6-2.6875 6-6v-15.570313c6.535156-10.679687 9.089843-23.320312 7.214843-35.699218 7.03125 5.550781 15.730469 8.570312 24.6875 8.5625h25.363282v25.378906c-.019532 15.804688-12.828125 28.617188-28.636719 28.632812-3.3125 0-6 2.6875-6 6v19.125zm0 0" fill="#0635c9"/><path d="m43.664062 459.355469c7.894532.175781 15.109376-4.441407 18.257813-11.683594 3.144531-7.246094 1.589844-15.671875-3.929687-21.316406-5.519532-5.648438-13.910157-7.390625-21.222657-4.410157-7.3125 2.980469-12.09375 10.09375-12.09375 17.988282-.105469 10.601562 8.386719 19.289062 18.988281 19.421875zm0-26.839844c3.042969-.183594 5.886719 1.507813 7.179688 4.265625 1.289062 2.761719.765625 6.03125-1.324219 8.246094-2.085937 2.21875-5.316406 2.9375-8.148437 1.816406-2.835938-1.125-4.695313-3.863281-4.695313-6.910156-.109375-3.976563 3.011719-7.292969 6.988281-7.417969zm0 0" fill="#0635c9"/><path d="m239.636719 272h-31.449219c-3.316406 0-6 2.6875-6 6s2.683594 6 6 6h31.449219c3.3125 0 6-2.6875 6-6s-2.6875-6-6-6zm0 0" fill="#0635c9"/><path d="m222.871094 214.277344c.550781 0 1.101562-.074219 1.632812-.222656 11.542969-3.625 22.457032-9.015626 32.351563-15.976563 21.625-15.289063 33.058593-35.644531 33.058593-58.867187v-34.8125c0-2.398438-1.433593-4.566407-3.636718-5.511719l-.386719-.167969c-20.726563-8.917969-40.324219-20.261719-58.378906-33.796875-2.132813-1.601563-5.066407-1.601563-7.199219 0-18.050781 13.53125-37.644531 24.878906-58.367188 33.796875l-.394531.171875c-2.207031.945313-3.636719 3.113281-3.636719 5.511719v34.808594c0 23.183593 11.042969 43.519531 31.9375 58.808593 9.535157 6.960938 20.113282 12.363281 31.335938 16.015625.546875.160156 1.113281.242188 1.683594.242188zm-40.847656-40.136719c.125-.484375.1875-.980469.191406-1.480469v-3.667968c.007812-1.78125-.78125-3.472657-2.148438-4.613282-1.367187-1.140625-3.171875-1.613281-4.921875-1.285156-3.503906-7.472656-5.292969-15.632812-5.234375-23.882812v-30.878907c19.042969-8.464843 37.144532-18.90625 54-31.152343 16.859375 12.246093 34.960938 22.6875 54 31.152343v30.878907c.058594 8.261718-1.800781 16.425781-5.421875 23.851562-1.726562-.269531-3.488281.234375-4.8125 1.375s-2.078125 2.808594-2.066406 4.554688v3.667968c0 .339844.03125.675782.089844 1.011719-4.472657 5.5-9.6875 10.351563-15.5 14.417969-8.398438 5.890625-17.589844 10.566406-27.300781 13.886718-9.367188-3.332031-18.203126-7.992187-26.242188-13.84375-5.488281-3.980468-10.410156-8.6875-14.632812-13.992187zm0 0" fill="#1ae5be"/><path d="m229.910156 172.660156v-3.667968c0-3.3125-2.683594-6-6-6-3.3125 0-6 2.6875-6 6v3.667968c0 3.316406 2.6875 6 6 6 3.316406 0 6-2.683594 6-6zm0 0" fill="#1ae5be"/><path d="m247.757812 178.660156c3.3125 0 6-2.683594 6-6v-3.667968c0-3.3125-2.6875-6-6-6-3.316406 0-6 2.6875-6 6v3.667968c0 3.316406 2.683594 6 6 6zm0 0" fill="#1ae5be"/><path d="m200.0625 162.992188c-3.3125 0-6 2.6875-6 6v3.667968c0 3.316406 2.6875 6 6 6s6-2.683594 6-6v-3.667968c0-3.3125-2.6875-6-6-6zm0 0" fill="#1ae5be"/></svg>