<svg height="480pt" viewBox="0 -54 480 480" width="480pt" xmlns="http://www.w3.org/2000/svg"><path d="m42 33.632812c.011719-11.941406 9.691406-21.617187 21.632812-21.632812h-30c-11.941406.015625-21.621093 9.691406-21.632812 21.632812v193.324219h30zm0 0" fill="#d4e1f4"/><path d="m42 258.1875v-19.230469h-30v19.230469c.011719 11.941406 9.691406 21.617188 21.632812 21.628906h30c-11.941406-.011718-21.621093-9.6875-21.632812-21.628906zm0 0" fill="#d4e1f4"/><path d="m378.367188 0h-344.734376c-18.566406.0234375-33.6132808 15.066406-33.632812 33.632812v224.554688c.0195312 18.5625 15.066406 33.609375 33.632812 33.628906h113.507813v67.203125h-26.066406c-3.3125 0-6 2.683594-6 6 0 3.3125 2.6875 6 6 6h174.824219c3.316406 0 6-2.6875 6-6 0-3.316406-2.683594-6-6-6h-31.039063v-67.203125h113.507813c18.566406-.019531 33.613281-15.066406 33.632812-33.628906v-48.800781c0-3.3125-2.6875-6-6-6s-6 2.6875-6 6v17.566406h-388v-193.320313c.011719-11.941406 9.691406-21.617187 21.632812-21.632812h344.734376c11.941406.015625 21.621093 9.691406 21.632812 21.632812v8c0 3.3125 2.6875 6 6 6s6-2.6875 6-6v-8c-.019531-18.566406-15.066406-33.6093745-33.632812-33.632812zm-125.507813 359.019531h-93.71875v-67.199219h93.71875zm147.140625-120.0625v19.230469c-.011719 11.941406-9.691406 21.617188-21.632812 21.628906h-344.734376c-11.941406-.011718-21.621093-9.6875-21.632812-21.628906v-19.230469zm0 0" fill="#0635c9"/><g fill="#1ae5be"><path d="m454 94.589844h-2v-19.359375c-.023438-21.859375-17.738281-39.574219-39.601562-39.601563h-14.796876c-21.863281.027344-39.578124 17.742188-39.601562 39.601563v19.359375h-2c-14.351562.015625-25.984375 11.648437-26 26v68.800781c.015625 14.351563 11.648438 25.984375 26 26h98c14.351562-.015625 25.984375-11.648437 26-26v-68.800781c-.015625-14.351563-11.648438-25.984375-26-26zm-84-19.359375c.015625-15.238281 12.363281-27.582031 27.601562-27.601563h14.796876c15.238281.019532 27.585937 12.363282 27.601562 27.601563v19.359375h-70zm98 114.160156c-.007812 7.726563-6.269531 13.992187-14 14h-98c-7.730469-.007813-13.992188-6.273437-14-14v-68.800781c.007812-7.726563 6.269531-13.992188 14-14h98c7.730469.007812 13.992188 6.273437 14 14zm0 0"/><path d="m391.398438 146.199219c-4.855469 0-8.789063 3.9375-8.789063 8.792969 0 4.855468 3.9375 8.789062 8.792969 8.789062 4.855468 0 8.789062-3.9375 8.789062-8.792969-.003906-4.851562-3.9375-8.785156-8.792968-8.789062zm0 12c-1.769532 0-3.207032-1.4375-3.207032-3.210938 0-1.769531 1.4375-3.207031 3.207032-3.207031 1.773437 0 3.210937 1.4375 3.210937 3.207031-.003906 1.773438-1.4375 3.207031-3.210937 3.210938zm0 0"/><path d="m418.601562 146.199219c-4.855468 0-8.792968 3.933593-8.792968 8.789062s3.9375 8.792969 8.792968 8.792969c4.855469 0 8.789063-3.9375 8.789063-8.792969-.003906-4.851562-3.9375-8.785156-8.789063-8.789062zm0 12c-1.773437 0-3.210937-1.4375-3.210937-3.207031 0-1.773438 1.4375-3.210938 3.207031-3.210938 1.773438 0 3.210938 1.4375 3.210938 3.207031-.003906 1.773438-1.4375 3.207031-3.207032 3.210938zm0 0"/><path d="m362.792969 146.199219c-4.855469 0-8.792969 3.9375-8.792969 8.792969 0 4.855468 3.9375 8.789062 8.792969 8.789062s8.792969-3.9375 8.792969-8.792969c-.003907-4.851562-3.941407-8.785156-8.792969-8.789062zm0 12c-1.773438 0-3.207031-1.4375-3.207031-3.210938 0-1.769531 1.433593-3.207031 3.207031-3.207031 1.769531 0 3.207031 1.4375 3.207031 3.207031 0 1.773438-1.4375 3.207031-3.207031 3.210938zm0 0"/><path d="m447.207031 146.199219c-4.855469 0-8.792969 3.933593-8.792969 8.789062s3.9375 8.792969 8.792969 8.792969 8.792969-3.9375 8.792969-8.792969c-.003906-4.851562-3.9375-8.785156-8.792969-8.789062zm0 12c-1.769531 0-3.207031-1.4375-3.207031-3.207031 0-1.773438 1.433594-3.210938 3.207031-3.210938 1.773438 0 3.207031 1.4375 3.207031 3.207031 0 1.773438-1.4375 3.207031-3.207031 3.210938zm0 0"/></g></svg>