<svg height="459pt" viewBox="-15 0 459 459.03749" width="459pt" xmlns="http://www.w3.org/2000/svg"><path d="m104.003906 142.980469v-87.734375c.015625-12.832032 10.414063-23.230469 23.246094-23.246094h252.207031l8-20h-280.207031c-12.832031.015625-23.230469 10.414062-23.246094 23.246094v87.734375c.015625 11.652343 8.648438 21.5 20.199219 23.039062-.132813-1.007812-.199219-2.023437-.199219-3.039062zm0 0" fill="#d4e1f4"/><g fill="#0635c9"><path d="m400.820312 56.238281h-18.132812l19.203125-48.007812c.738281-1.851563.511719-3.945313-.605469-5.59375-1.113281-1.648438-2.976562-2.636719-4.964844-2.636719h-289.070312c-19.457031.0234375-35.222656 15.789062-35.246094 35.246094v87.734375c.023438 19.453125 15.789063 35.222656 35.246094 35.242187h37.867188v18.746094c0 3.3125 2.6875 6 6 6h10.875v35.617188c0 3.3125 2.683593 6 6 6h27.742187v85.914062l-122.976563 48.144531v-50.117187c0-3.3125-2.6875-6-6-6h-60.738281c-3.316406 0-5.9999998 2.6875-5.9999998 6v117.472656c0 3.3125 2.6835938 6 5.9999998 6h60.738281c3.3125 0 6-2.6875 6-6v-54.472656l131.160157-51.347656c2.300781-.902344 3.8125-3.117188 3.8125-5.585938v-90.007812h27.746093c3.3125 0 6-2.6875 6-6v-35.617188h10.871094c3.3125 0 6-2.6875 6-6v-18.746094h79.484375c2.453125 0 4.660157-1.492187 5.570313-3.769531l8.839844-22.101563h48.578124c3.3125 0 6-2.6875 6-6v-64.113281c0-3.3125-2.6875-6-6-6zm-340.0625 363.761719h-48.738281v-105.472656h48.738281zm168.71875-207.414062h-55.488281v-29.617188h55.488281zm16.871094-41.617188h-89.230468v-12.746094h89.234374zm87.421875-24.746094h-226.519531c-12.832031-.015625-23.230469-10.414062-23.246094-23.242187v-87.734375c.015625-12.832032 10.414063-23.230469 23.246094-23.246094h280.207031zm61.050781-25.871094h-37.777343l20.84375-52.113281h16.933593zm0 0"/><path d="m113.996094 34.867188c-3.3125 0-6 2.6875-6 6v6.574218c0 3.3125 2.6875 6 6 6 3.316406 0 6-2.6875 6-6v-6.574218c0-3.3125-2.683594-6-6-6zm0 0"/><path d="m146.609375 34.867188c-3.316406 0-6 2.6875-6 6v6.574218c0 3.3125 2.683594 6 6 6 3.3125 0 6-2.6875 6-6v-6.574218c0-3.3125-2.6875-6-6-6zm0 0"/><path d="m179.21875 34.867188c-3.3125 0-6 2.6875-6 6v6.574218c0 3.3125 2.6875 6 6 6s6-2.6875 6-6v-6.574218c0-3.3125-2.6875-6-6-6zm0 0"/><path d="m211.828125 34.867188c-3.3125 0-6 2.6875-6 6v6.574218c0 3.3125 2.6875 6 6 6 3.316406 0 6-2.6875 6-6v-6.574218c0-3.3125-2.683594-6-6-6zm0 0"/><path d="m244.441406 34.867188c-3.3125 0-6 2.6875-6 6v6.574218c0 3.3125 2.6875 6 6 6s6-2.6875 6-6v-6.574218c0-3.3125-2.6875-6-6-6zm0 0"/><path d="m277.050781 34.867188c-3.3125 0-6 2.6875-6 6v6.574218c0 3.3125 2.6875 6 6 6 3.316407 0 6-2.6875 6-6v-6.574218c0-3.3125-2.683593-6-6-6zm0 0"/><path d="m309.660156 34.867188c-3.3125 0-6 2.6875-6 6v6.574218c0 3.3125 2.6875 6 6 6 3.316406 0 6-2.6875 6-6v-6.574218c0-3.3125-2.683594-6-6-6zm0 0"/><path d="m342.273438 34.867188c-3.3125 0-6 2.6875-6 6v6.574218c0 3.3125 2.6875 6 6 6s6-2.6875 6-6v-6.574218c0-3.3125-2.6875-6-6-6zm0 0"/></g><path d="m271.136719 438.921875c17.132812 13.109375 38.117187 20.183594 59.6875 20.113281 53.339843 0 97.003906-42.425781 98.542969-95.742187 1.539062-53.316407-39.601563-98.1875-92.851563-101.269531-53.25-3.082032-99.292969 36.742187-103.914063 89.882812-.246093 2.820312-.367187 5.699219-.367187 8.539062-.039063 30.804688 14.359375 59.851563 38.898437 78.476563zm-26.582031-85.988281c4.074218-47.316406 45.21875-82.703125 92.613281-79.648438 47.394531 3.058594 83.65625 43.429688 81.621093 90.878906-2.035156 47.449219-41.617187 84.570313-89.097656 83.558594-47.480468-1.011718-85.449218-39.785156-85.457031-87.277344 0-2.503906.105469-5.03125.320313-7.511718zm0 0" fill="#1ae5be"/><path d="m315.589844 390.183594c2.34375 2.34375 6.140625 2.34375 8.484375 0l50.992187-50.992188c1.550782-1.511718 2.167969-3.734375 1.621094-5.828125-.550781-2.089843-2.183594-3.726562-4.277344-4.277343-2.089844-.550782-4.316406.070312-5.828125 1.617187l-46.75 46.753906-24.765625-24.765625c-2.351562-2.289062-6.105468-2.261718-8.425781.058594s-2.347656 6.074219-.058594 8.429688zm0 0" fill="#1ae5be"/></svg>